<svg viewBox="0 0 203 202" xmlns="http://www.w3.org/2000/svg">
    <path d="M101.287 0C104.587 0.25 106.637 3.04999 109.467 4.73999C116.337 9.28999 125.037 9.91 132.757 7.19C135.167 6.45 137.877 6.18003 139.667 8.09003C141.267 9.71003 142.187 11.76 143.577 13.76C147.387 19.32 153.417 23.22 160.047 24.41C169.027 25.56 170.897 24.41 172.377 34.57C173.937 41.72 178.587 47.94 185.017 51.47C187.257 52.72 189.557 53.46 191.307 55.16C193.697 57.46 192.367 61.39 191.857 64.5C190.547 72.32 192.997 80.38 198.427 86.18C199.967 87.9 202.027 89.76 202.367 92.06C202.447 92.66 202.407 92.83 202.367 93.35C202.007 95.57 200.517 97.44 199.357 99.4C195.067 106.39 194.417 115.11 197.597 122.69C198.387 124.82 199.557 127.08 198.957 129.4C198.217 131.95 195.437 133.45 193.357 135.12C188.497 138.9 185.177 144.31 183.977 150.28C182.637 154.9 184.907 160.4 181.637 163.55C179.727 165.09 177.147 165.44 174.857 166.18C170.447 167.54 166.517 170.05 163.467 173.41C161.907 175.12 160.667 176.92 159.557 179.06C157.187 183.97 156.727 189.52 150.477 188.75C142.987 187.64 135.257 188.86 129.297 193.53C121.157 199.98 122.827 204.85 111.337 198.57C104.567 195.65 96.7873 195.78 90.0573 199.04C87.8373 200.07 85.8874 201.42 83.4674 201.55C82.7474 201.59 82.1973 201.43 81.4573 201.14C79.0873 199.97 77.5573 197.58 75.6973 195.78C70.0873 190.18 62.0573 187.55 54.1673 188.58C49.4673 189.19 46.5773 188.78 44.8873 183.97C41.9273 174.09 33.9174 167.19 23.8574 165.13C21.6574 164.5 19.5073 163.08 19.1773 160.68C18.6473 157.79 19.2073 154.64 18.6573 151.59C17.7473 145.59 14.8973 140.25 10.2073 136.09C7.43734 133.46 4.55729 132.78 3.40729 129.23C2.62729 126.03 5.88729 121.55 6.40729 117.33C6.65729 115.96 6.78733 114.57 6.81733 113.18C6.95733 107.65 5.11736 102.27 1.97736 97.67C1.31736 96.59 0.637373 95.49 0.237373 94.2C-0.652627 91.64 1.11732 89.24 2.93732 87.35C9.62732 80.83 12.3773 71.35 10.1573 62.3C9.72729 60.46 9.48733 57.8 10.1973 56.49C11.3573 54.18 14.0873 53.21 16.3273 52.05C24.3573 48.19 29.5473 40.29 30.6373 31.51C30.9173 30.07 31.1973 28.83 31.9373 27.58C33.7573 24.66 37.9173 25.09 41.0873 24.63C49.3773 23.6 56.5173 18.45 60.5473 11.1C61.1473 10.09 61.8374 9.07003 62.7174 8.16003C63.8074 6.98003 65.4373 6.46999 67.0873 6.67999C78.5473 9.91999 86.8473 10.15 96.4973 2.16998C97.8773 1.13998 99.2673 0.140029 101.007 0.0300293H101.267L101.287 0Z" fill="#FFC1CD"/>
</svg>
