<svg width="296" height="512" viewBox="0 0 296 512" fill="none" xmlns="http://www.w3.org/2000/svg">
<path d="M252.266 43.188C225.656 16.531 188.656 -0.0159884 148 1.15928e-05C107.344 -0.0159884 70.3439 16.531 43.7339 43.188C17.0929 69.813 0.530914 106.797 0.545914 147.454C0.529914 182.095 12.5619 214.11 32.6239 239.251C38.5299 246.689 43.6399 252.86 47.7179 258.157C50.7809 262.126 53.2649 265.595 55.2339 268.751C58.1869 273.501 59.9839 277.423 61.3119 282.126C62.6089 286.845 63.4059 292.595 63.4209 300.72C63.4209 306.189 64.0299 311.517 65.5619 316.751C66.7029 320.657 68.4059 324.532 70.8119 328.095C74.3589 333.47 79.6249 337.986 85.4059 340.658C91.1719 343.361 97.1869 344.346 102.797 344.346H193.219C198.203 344.346 203.5 343.565 208.688 341.487C212.563 339.94 216.344 337.628 219.563 334.659C224.438 330.221 227.86 324.518 229.844 318.706C231.844 312.862 232.594 306.878 232.594 300.722C232.594 293.503 233.235 288.144 234.282 283.753C235.907 277.19 238.282 272.315 242.923 265.487C247.532 258.721 254.501 250.409 263.407 239.253C283.454 214.112 295.47 182.081 295.454 147.456C295.469 106.797 278.906 69.813 252.266 43.188ZM230.531 213.063C224.859 220.157 219.75 226.36 215.015 232.469C211.484 237.063 208.156 241.625 205.109 246.5C200.562 253.781 196.687 261.875 194.187 270.938C191.687 280.001 190.562 289.797 190.562 300.719C190.562 301.313 190.546 301.844 190.515 302.313H105.515C105.484 301.844 105.452 301.329 105.452 300.719C105.452 291 104.577 282.188 102.593 273.969C99.6869 261.61 94.2019 251.047 87.7649 241.719C81.2809 232.313 73.9519 223.719 65.4989 213.063C51.1239 195.016 42.5929 172.329 42.5769 147.454C42.5929 118.282 54.3429 92.063 73.4679 72.907C92.6089 53.797 118.813 42.031 148 42.031C177.187 42.031 203.406 53.797 222.547 72.906C241.656 92.062 253.406 118.281 253.422 147.453C253.406 172.344 244.875 195.031 230.531 213.063Z" fill="#fff"/>
<path d="M148 512C165.406 512 179.531 497.891 179.531 480.469H116.468C116.469 497.891 130.594 512 148 512Z" fill="#fff"/>
<path d="M202.047 369.375H93.9691C84.5631 369.375 76.9531 376.984 76.9531 386.375C76.9531 395.781 84.5621 403.391 93.9691 403.391H202.047C211.438 403.391 219.063 395.782 219.063 386.375C219.063 376.984 211.438 369.375 202.047 369.375Z" fill="#fff"/>
<path d="M202.047 424.297H93.9691C84.5631 424.297 76.9531 431.906 76.9531 441.313C76.9531 450.704 84.5621 458.313 93.9691 458.313H202.047C211.438 458.313 219.063 450.704 219.063 441.313C219.063 431.906 211.438 424.297 202.047 424.297Z" fill="#fff"/>
</svg>
