<svg width="502" height="512" viewBox="0 0 502 512" fill="none" xmlns="http://www.w3.org/2000/svg">
<path d="M498.919 386.125H498.927L439.595 71.392H439.587C438.935 66.494 437.492 61.41 434.657 56.569C431.74 51.541 427.469 46.896 421.741 42.659C402.249 28.35 372.066 20.469 339.454 18.212C317.635 6.829 286.25 0.049 250.999 0C215.747 0.049 184.362 6.829 162.539 18.212C129.931 20.47 99.7516 28.35 80.2596 42.659C74.4736 46.945 70.2445 51.696 67.3925 56.716C64.5815 61.622 63.1596 66.666 62.4136 71.384H62.4055L3.06555 386.125H3.07755C1.66355 392.334 0.685552 399.049 0.685552 406.049C0.682552 414.548 2.13255 423.504 6.04755 432.133C9.94655 440.763 16.3436 448.96 25.6056 455.813C50.8906 474.409 90.9026 484.938 134.12 487.847C162.564 502.849 204.204 511.951 250.999 512C297.793 511.952 339.434 502.849 367.877 487.847C411.099 484.938 451.109 474.409 476.379 455.813C485.652 448.96 492.041 440.771 495.953 432.141C499.864 423.511 501.314 414.564 501.314 406.056C501.314 399.058 500.329 392.343 498.919 386.125ZM175.723 58.387C195.171 58.493 210.747 68.027 210.527 79.679C210.287 91.332 194.327 100.703 174.884 100.597C155.425 100.491 139.848 90.957 140.08 79.312C140.321 67.652 156.269 58.296 175.723 58.387ZM453.758 425.329C436.27 438.31 401.809 447.804 363.844 450.093L357.211 450.492L351.385 453.686C328.153 466.423 290.627 474.034 250.999 474.034C211.363 474.034 173.837 466.423 150.613 453.686L144.787 450.492L138.154 450.093C100.189 447.803 65.7356 438.31 48.2396 425.329C41.4756 420.309 35.8125 413.081 40.1395 394.339L40.2696 393.752L40.3835 393.166L81.9995 172.389C82.9605 173.237 83.9635 174.075 85.0555 174.883C102.788 188.019 138.512 196.103 169.046 197.985C188.253 208.439 216.048 215.985 250.999 215.994C285.949 215.986 313.745 208.44 332.952 197.985C363.486 196.102 399.21 188.018 416.942 174.883C418.034 174.076 419.028 173.237 420.006 172.389L461.614 393.166L461.728 393.752L461.858 394.339C466.193 413.081 460.522 420.309 453.758 425.329Z" fill="#603603"/>
<path d="M453.758 425.329C436.27 438.31 401.809 447.804 363.844 450.093L357.211 450.492L351.385 453.686C328.153 466.423 290.627 474.034 250.999 474.034C211.363 474.034 173.837 466.423 150.613 453.686L144.787 450.492L138.154 450.093C100.189 447.803 65.7356 438.31 48.2396 425.329C41.4756 420.309 35.8125 413.081 40.1395 394.339L40.2696 393.752L40.3835 393.166L81.9995 172.389C82.9605 173.237 83.9635 174.075 85.0555 174.883C102.788 188.019 138.512 196.103 169.046 197.985C188.253 208.439 216.048 215.985 250.999 215.994C285.949 215.986 313.745 208.44 332.952 197.985C363.486 196.102 399.21 188.018 416.942 174.883C418.034 174.076 419.028 173.237 420.006 172.389L461.614 393.166L461.728 393.752L461.858 394.339C466.193 413.081 460.522 420.309 453.758 425.329Z" fill="#FFE392"/>
</svg>
