<svg width="512" height="492" viewBox="0 0 512 492" fill="none" xmlns="http://www.w3.org/2000/svg">
<path d="M512 199.016C512 194.363 511.284 189.644 509.81 185.064L509.802 185.05C503.725 166.2 486.202 153.434 466.399 153.427H338.382L299.412 32.0906C293.35 13.2326 275.822 0.438641 256.002 0.431641C236.167 0.438641 218.65 13.2326 212.588 32.0836L232.294 38.4196L212.588 32.0906L173.618 153.427H45.601C25.798 153.434 8.27403 166.2 2.19303 185.05L2.18903 185.064C0.715029 189.645 -0.000971208 194.364 -0.000971208 199.016C-0.00797121 213.422 6.84903 227.338 19.022 236.076L19.011 236.062L122.713 310.514L82.794 431.705L82.801 431.684C81.251 436.373 80.499 441.199 80.499 445.974C80.493 460.293 87.275 474.109 99.281 482.854L99.296 482.862C107.272 488.651 116.714 491.578 126.1 491.571C135.54 491.578 145.044 488.629 153.045 482.768L153.052 482.76L256.002 407.317L358.944 482.76L358.966 482.768C366.956 488.622 376.457 491.578 385.9 491.571C395.274 491.578 404.725 488.658 412.704 482.862L412.715 482.854C424.73 474.101 431.515 460.286 431.501 445.96C431.501 441.199 430.76 436.38 429.217 431.705L389.29 310.513L492.984 236.061L492.974 236.068C505.138 227.338 512.007 213.422 512 199.016ZM468.852 202.432H468.845L352.805 285.751C345.441 291.037 342.384 300.437 345.218 309.039L389.902 444.65L390.103 445.959C390.103 447.282 389.484 448.563 388.351 449.382L388.366 449.375C387.61 449.921 386.791 450.166 385.899 450.173C385.004 450.166 384.163 449.915 383.393 449.361L383.407 449.368L268.238 364.963C260.974 359.641 251.032 359.641 243.768 364.963L128.592 449.361C127.834 449.915 126.999 450.166 126.1 450.173C125.212 450.166 124.385 449.921 123.63 449.368C122.508 448.548 121.9 447.282 121.893 445.973L122.105 444.672L122.111 444.65L166.781 309.039C169.614 300.43 166.554 291.037 159.189 285.751L43.152 202.432L43.145 202.425C42.026 201.641 41.401 200.354 41.393 199.016L41.594 197.743C42.152 195.995 43.788 194.816 45.6 194.823H188.71C197.711 194.823 205.665 189.019 208.416 180.446L252 44.7406C252.553 43.0066 254.19 41.8206 256.002 41.8286C257.807 41.8206 259.447 43.0076 260.004 44.7476L303.583 180.446C306.331 189.019 314.289 194.823 323.289 194.823H466.399C468.211 194.816 469.847 195.995 470.401 197.743L470.603 199.016C470.596 200.354 469.977 201.634 468.852 202.432Z" fill="#fff"/>
</svg>
